<svg width="28" height="28" viewBox="0 0 28 28" fill="none" xmlns="http://www.w3.org/2000/svg">
<path d="M13.9793 28C6.29024 28.0072 0.00722359 21.7401 6.25674e-06 14.0555C-0.00721107 6.28611 6.23053 0.011172 13.9721 1.48292e-05C21.7334 -0.0111424 28.0177 6.27495 28 14.0318C27.9822 21.7703 21.736 27.9928 13.9787 28H13.9793ZM13.9839 25.2035C20.1928 25.1995 25.2029 20.184 25.199 13.978C25.195 7.82056 20.1514 2.78538 14.0016 2.80047C7.80456 2.81557 2.78655 7.83762 2.8023 14.0095C2.81739 20.1913 7.82818 25.2068 13.9839 25.2028V25.2035Z" fill="#0FB600"/>
<path d="M12.4945 15.9351C13.0384 15.2158 13.564 14.5214 14.0889 13.8264C15.308 12.2132 16.5297 10.6013 17.7455 8.98484C18.2205 8.35282 19.0629 8.1999 19.6922 8.64356C20.3384 9.0997 20.5038 9.96208 20.032 10.6138C19.4684 11.3928 18.872 12.1489 18.2894 12.9141C16.7731 14.906 15.2574 16.8986 13.7392 18.8892C13.001 19.8566 12.0136 19.8605 11.2577 18.8957C10.1784 17.5188 9.09975 16.1419 8.02961 14.7584C7.48963 14.0601 7.62413 13.1589 8.31962 12.6897C8.95474 12.2618 9.73028 12.3924 10.2407 13.0375C10.912 13.8868 11.5661 14.7492 12.2281 15.605C12.3069 15.7061 12.3895 15.8039 12.4945 15.9325V15.9351Z" fill="#0FB600"/>
</svg>
