<svg width="19" height="19" viewBox="0 0 19 19" fill="none" xmlns="http://www.w3.org/2000/svg">
<path d="M7.25 11.1875H11.75" stroke="white" stroke-linecap="round" stroke-linejoin="round"/>
<path d="M7.25 8.9375H11.75" stroke="white" stroke-linecap="round" stroke-linejoin="round"/>
<path d="M11.7501 3.3125H14.5625C14.7117 3.3125 14.8548 3.37176 14.9602 3.47725C15.0657 3.58274 15.125 3.72582 15.125 3.875V15.6875C15.125 15.8367 15.0657 15.9798 14.9602 16.0852C14.8548 16.1907 14.7117 16.25 14.5625 16.25H4.4375C4.28832 16.25 4.14524 16.1907 4.03975 16.0852C3.93426 15.9798 3.875 15.8367 3.875 15.6875V3.875C3.875 3.72582 3.93426 3.58274 4.03975 3.47725C4.14524 3.37176 4.28832 3.3125 4.4375 3.3125H7.24985" stroke="white" stroke-linecap="round" stroke-linejoin="round"/>
<path d="M6.6875 5.5625V5C6.6875 4.25408 6.98382 3.53871 7.51126 3.01126C8.03871 2.48382 8.75408 2.1875 9.5 2.1875C10.2459 2.1875 10.9613 2.48382 11.4887 3.01126C12.0162 3.53871 12.3125 4.25408 12.3125 5V5.5625H6.6875Z" stroke="white" stroke-linecap="round" stroke-linejoin="round"/>
</svg>
