<svg width="19" height="19" viewBox="0 0 19 19" fill="none" xmlns="http://www.w3.org/2000/svg">
<path d="M4.5498 14.8998C4.89568 14.5124 6.51559 12.7298 6.99031 12.7298H12.0096C12.6975 12.7298 14.1018 14.2075 14.4498 14.7284M16.6998 9.4998C16.6998 13.4763 13.4763 16.6998 9.4998 16.6998C5.52335 16.6998 2.2998 13.4763 2.2998 9.4998C2.2998 5.52335 5.52335 2.2998 9.4998 2.2998C13.4763 2.2998 16.6998 5.52335 16.6998 9.4998ZM12.0789 7.04577C12.0789 5.67214 10.9193 4.5498 9.50002 4.5498C8.08074 4.5498 6.92111 5.67214 6.92111 7.04577C6.92111 8.41941 8.08074 9.54174 9.50002 9.54174C10.9193 9.54174 12.0789 8.41941 12.0789 7.04577Z" stroke="white"/>
</svg>
