<svg width="20" height="20" viewBox="0 0 20 20" fill="none" xmlns="http://www.w3.org/2000/svg">
<path d="M10 19C14.9706 19 19 14.9706 19 10C19 5.02944 14.9706 1 10 1C5.02944 1 1 5.02944 1 10C1 14.9706 5.02944 19 10 19Z" stroke="white" stroke-width="2" stroke-linecap="round" stroke-linejoin="round"/>
<path fill-rule="evenodd" clip-rule="evenodd" d="M10 14C10.5523 14 11 14.4448 11 14.9934V15.0066C11 15.5552 10.5523 16 10 16C9.44772 16 9 15.5552 9 15.0066V14.9934C9 14.4448 9.44772 14 10 14Z" fill="white"/>
<path d="M10.1407 12C10.121 11.6519 10.2147 11.3069 10.4078 11.0168C10.6008 10.7267 10.8828 10.5073 11.2111 10.3917C11.6134 10.2375 11.9745 9.99198 12.266 9.6743C12.5575 9.35662 12.7714 8.97549 12.8908 8.56094C13.0103 8.14638 13.0321 7.7097 12.9544 7.28529C12.8768 6.86087 12.7019 6.4603 12.4434 6.11511C12.185 5.76993 11.8501 5.48955 11.4651 5.29605C11.0801 5.10255 10.6555 5.00121 10.2248 5.00001C9.79404 4.99881 9.36891 5.09779 8.98285 5.28915C8.5968 5.48051 8.26035 5.75902 8 6.10277" stroke="white" stroke-width="2" stroke-linecap="round" stroke-linejoin="round"/>
</svg>
