<svg width="19" height="15" viewBox="0 0 19 15" fill="none" xmlns="http://www.w3.org/2000/svg">
<path d="M16.25 9.11328C17.4381 10.0195 18.5 12.3011 18.5 13.707C18.5 14.145 18.187 14.5 17.8008 14.5H17.375M12.875 5.39882C13.6436 4.94495 14.1607 4.09662 14.1607 3.125C14.1607 2.15338 13.6436 1.30505 12.875 0.851178M1.19916 14.5H13.5151C13.9013 14.5 14.2143 14.145 14.2143 13.707C14.2143 10.954 11.9612 8.72222 7.35714 8.72222C2.75306 8.72222 0.5 10.954 0.5 13.707C0.5 14.145 0.813024 14.5 1.19916 14.5ZM9.92857 3.125C9.92857 4.57475 8.7773 5.75 7.35714 5.75C5.93698 5.75 4.78571 4.57475 4.78571 3.125C4.78571 1.67525 5.93698 0.5 7.35714 0.5C8.7773 0.5 9.92857 1.67525 9.92857 3.125Z" stroke="white" stroke-linecap="round"/>
</svg>
