<svg width="110" height="12" viewBox="0 0 110 12" fill="none" xmlns="http://www.w3.org/2000/svg">
<path d="M109.973 10.622C109.815 10.6873 109.623 10.762 109.399 10.846C109.175 10.93 108.933 10.9953 108.671 11.042C108.419 11.098 108.163 11.126 107.901 11.126C107.556 11.126 107.239 11.0653 106.949 10.944C106.66 10.8227 106.427 10.6313 106.249 10.37C106.081 10.0993 105.997 9.74933 105.997 9.32V5.106H105.031V3.664H105.997V1.284H107.873V3.664H109.413V5.106H107.873V8.69C107.883 8.942 107.953 9.124 108.083 9.236C108.214 9.348 108.377 9.404 108.573 9.404C108.769 9.404 108.961 9.37133 109.147 9.306C109.334 9.24067 109.483 9.18467 109.595 9.138L109.973 10.622Z" fill="#1E1F24"/>
<path d="M96.0509 11.14C95.4536 11.14 94.9169 11.042 94.4409 10.846C93.9649 10.6407 93.5589 10.3607 93.2229 10.006C92.8869 9.642 92.6256 9.23133 92.4389 8.774C92.2616 8.31667 92.1729 7.836 92.1729 7.332C92.1729 6.64133 92.3269 6.01133 92.6349 5.442C92.9523 4.86333 93.4003 4.40133 93.9789 4.056C94.5576 3.71067 95.2436 3.538 96.0369 3.538C96.8303 3.538 97.5116 3.71067 98.0809 4.056C98.6503 4.40133 99.0749 4.854 99.3549 5.414L97.5209 5.974C97.3623 5.70333 97.1523 5.498 96.8909 5.358C96.6296 5.20867 96.3403 5.134 96.0229 5.134C95.6683 5.134 95.3416 5.22733 95.0429 5.414C94.7536 5.59133 94.5249 5.848 94.3569 6.184C94.1889 6.51067 94.1049 6.89333 94.1049 7.332C94.1049 7.76133 94.1889 8.144 94.3569 8.48C94.5343 8.80667 94.7676 9.068 95.0569 9.264C95.3463 9.45067 95.6683 9.544 96.0229 9.544C96.2469 9.544 96.4569 9.50667 96.6529 9.432C96.8583 9.35733 97.0403 9.25467 97.1989 9.124C97.3576 8.99333 97.4743 8.844 97.5489 8.676L99.3829 9.236C99.2149 9.6 98.9676 9.92667 98.6409 10.216C98.3236 10.5053 97.9456 10.734 97.5069 10.902C97.0776 11.0607 96.5923 11.14 96.0509 11.14Z" fill="#1E1F24"/>
<path d="M82.6161 11.14C82.0281 11.14 81.4961 11.042 81.0201 10.846C80.5441 10.6407 80.1381 10.3653 79.8021 10.02C79.4661 9.66533 79.2047 9.264 79.0181 8.816C78.8407 8.35867 78.7521 7.878 78.7521 7.374C78.7521 6.674 78.9061 6.03467 79.2141 5.456C79.5314 4.87733 79.9794 4.41533 80.5581 4.07C81.1461 3.71533 81.8367 3.538 82.6301 3.538C83.4327 3.538 84.1187 3.71533 84.6881 4.07C85.2574 4.41533 85.6914 4.87733 85.9901 5.456C86.2981 6.02533 86.4521 6.64133 86.4521 7.304C86.4521 7.416 86.4474 7.53267 86.4381 7.654C86.4287 7.766 86.4194 7.85933 86.4101 7.934H80.7401C80.7774 8.30733 80.8847 8.634 81.0621 8.914C81.2487 9.194 81.4821 9.40867 81.7621 9.558C82.0514 9.698 82.3594 9.768 82.6861 9.768C83.0594 9.768 83.4094 9.67933 83.7361 9.502C84.0721 9.31533 84.3007 9.07267 84.4221 8.774L86.0321 9.222C85.8547 9.59533 85.5981 9.92667 85.2621 10.216C84.9354 10.5053 84.5481 10.734 84.1001 10.902C83.6521 11.0607 83.1574 11.14 82.6161 11.14ZM80.6981 6.744H84.5341C84.4967 6.37067 84.3894 6.04867 84.2121 5.778C84.0441 5.498 83.8201 5.28333 83.5401 5.134C83.2601 4.97533 82.9474 4.896 82.6021 4.896C82.2661 4.896 81.9581 4.97533 81.6781 5.134C81.4074 5.28333 81.1834 5.498 81.0061 5.778C80.8381 6.04867 80.7354 6.37067 80.6981 6.744Z" fill="#1E1F24"/>
<path d="M73.2791 10.622C73.1204 10.6873 72.9291 10.762 72.7051 10.846C72.4811 10.93 72.2384 10.9953 71.9771 11.042C71.7251 11.098 71.4684 11.126 71.2071 11.126C70.8617 11.126 70.5444 11.0653 70.2551 10.944C69.9657 10.8227 69.7324 10.6313 69.5551 10.37C69.3871 10.0993 69.3031 9.74933 69.3031 9.32V5.106H68.3371V3.664H69.3031V1.284H71.1791V3.664H72.7191V5.106H71.1791V8.69C71.1884 8.942 71.2584 9.124 71.3891 9.236C71.5197 9.348 71.6831 9.404 71.8791 9.404C72.0751 9.404 72.2664 9.37133 72.4531 9.306C72.6397 9.24067 72.7891 9.18467 72.9011 9.138L73.2791 10.622Z" fill="#1E1F24"/>
<path d="M60.2747 11V3.664H62.1507V11H60.2747ZM60.2747 2.642V0.779999H62.1507V2.642H60.2747Z" fill="#1E1F24"/>
<path d="M53.6035 11H51.7275V6.884C51.7275 6.31467 51.6155 5.89 51.3915 5.61C51.1768 5.33 50.8781 5.19 50.4955 5.19C50.2715 5.19 50.0335 5.25533 49.7815 5.386C49.5295 5.51667 49.3008 5.69867 49.0955 5.932C48.8995 6.156 48.7548 6.41733 48.6615 6.716V11H46.7855V0.779999H48.6615V5.022C48.9321 4.55533 49.3008 4.19133 49.7675 3.93C50.2341 3.66867 50.7428 3.538 51.2935 3.538C51.7695 3.538 52.1568 3.622 52.4555 3.79C52.7541 3.94867 52.9875 4.168 53.1555 4.448C53.3235 4.71867 53.4401 5.02667 53.5055 5.372C53.5708 5.708 53.6035 6.058 53.6035 6.422V11Z" fill="#1E1F24"/>
<path d="M37.2591 11.14C36.6618 11.14 36.1251 11.042 35.6491 10.846C35.1731 10.6407 34.7671 10.3607 34.4311 10.006C34.0951 9.642 33.8338 9.23133 33.6471 8.774C33.4698 8.31667 33.3811 7.836 33.3811 7.332C33.3811 6.64133 33.5351 6.01133 33.8431 5.442C34.1605 4.86333 34.6085 4.40133 35.1871 4.056C35.7658 3.71067 36.4518 3.538 37.2451 3.538C38.0385 3.538 38.7198 3.71067 39.2891 4.056C39.8585 4.40133 40.2831 4.854 40.5631 5.414L38.7291 5.974C38.5705 5.70333 38.3605 5.498 38.0991 5.358C37.8378 5.20867 37.5485 5.134 37.2311 5.134C36.8765 5.134 36.5498 5.22733 36.2511 5.414C35.9618 5.59133 35.7331 5.848 35.5651 6.184C35.3971 6.51067 35.3131 6.89333 35.3131 7.332C35.3131 7.76133 35.3971 8.144 35.5651 8.48C35.7425 8.80667 35.9758 9.068 36.2651 9.264C36.5545 9.45067 36.8765 9.544 37.2311 9.544C37.4551 9.544 37.6651 9.50667 37.8611 9.432C38.0665 9.35733 38.2485 9.25467 38.4071 9.124C38.5658 8.99333 38.6825 8.844 38.7571 8.676L40.5911 9.236C40.4231 9.6 40.1758 9.92667 39.8491 10.216C39.5318 10.5053 39.1538 10.734 38.7151 10.902C38.2858 11.0607 37.8005 11.14 37.2591 11.14Z" fill="#1E1F24"/>
<path d="M27.8528 5.288C27.2834 5.288 26.7748 5.4 26.3268 5.624C25.8788 5.83867 25.5568 6.15134 25.3608 6.562V11H23.4848V3.664H25.2068V5.232C25.4681 4.728 25.7994 4.33133 26.2008 4.042C26.6021 3.75267 27.0268 3.594 27.4748 3.566C27.5774 3.566 27.6568 3.566 27.7128 3.566C27.7688 3.566 27.8154 3.57067 27.8528 3.58V5.288Z" fill="#1E1F24"/>
<path d="M11.9225 1.06H13.8825L17.5365 11H15.5485L14.6245 8.522H11.1525L10.2425 11H8.25453L11.9225 1.06ZM14.2745 7.164L12.9025 3.062L11.4745 7.164H14.2745Z" fill="#1E1F24"/>
<path d="M0.811996 11V8.984H2.352V11H0.811996Z" fill="#1E1F24"/>
</svg>
